<svg xmlns="http://www.w3.org/2000/svg" xmlns:xlink="http://www.w3.org/1999/xlink" version="1.1" enable-background="new 0 0 50 50" xml:space="preserve" width="144.28571856751756" height="145.80952761557117" style=""><rect id="backgroundrect" width="100%" height="100%" x="0" y="0" fill="none" stroke="none" class="" style=""/><g class="currentLayer" style=""><title>Layer 1</title><g id="svg_1" class="selected" fill-opacity="1" fill="#ffffff"><path d="M65.73809765154905,133.90000661606635 c19.466667670466357,0 36.26666853675924,-11.200000577528588 44.26666894927967,-27.733334763404127 H21.47142870226938 C29.471429114789807,122.7000060385378 46.27142998108269,133.90000661606635 65.73809765154905,133.90000661606635 z" id="svg_2" fill="#ffffff" fill-opacity="1"/><path d="M115.0714335287583,86.70000418219588 c0,-1.0666667216693895 -0.8000000412520428,-2.133333443338779 -1.8666667629214333,-2.133333443338779 c-18.40000094879697,-0.5333333608346948 -35.73333517592455,-7.466667051685726 -46.93333575345314,-22.133334474639835 c0,0 -0.2666666804173476,-0.5333333608346948 -0.2666666804173476,-0.5333333608346948 s-0.2666666804173476,0.2666666804173476 -0.2666666804173476,0.5333333608346948 c-11.200000577528588,14.933334103371452 -28.266668124238823,21.866667794222483 -46.93333575345314,22.133334474639835 c-1.0666667216693895,0 -1.8666667629214333,0.8000000412520428 -1.8666667629214333,1.8666667629214333 c0.2666666804173476,5.0666669279296 1.0666667216693895,9.866667175441851 2.6666668041734742,14.40000074253676 h93.06667146565424 C113.73810012667157,97.10000471847245 114.53810016792362,90.1666710276214 115.0714335287583,86.70000418219588 zM25.73809558894694,97.63333807930712 c-1.8666667629214333,0 -3.20000016500817,-1.3333334020867376 -3.20000016500817,-3.20000016500817 s1.3333334020867376,-3.20000016500817 3.20000016500817,-3.20000016500817 c1.8666667629214333,0 3.20000016500817,1.3333334020867376 3.20000016500817,3.20000016500817 S27.604762351868366,97.63333807930712 25.73809558894694,97.63333807930712 zM35.87142944480614,97.63333807930712 c-1.8666667629214333,0 -3.20000016500817,-1.3333334020867376 -3.20000016500817,-3.20000016500817 s1.3333334020867376,-3.20000016500817 3.20000016500817,-3.20000016500817 c1.8666667629214333,0 3.20000016500817,1.3333334020867376 3.20000016500817,3.20000016500817 S37.47142952731023,97.63333807930712 35.87142944480614,97.63333807930712 zM45.73809662024799,97.63333807930712 c-1.8666667629214333,0 -3.20000016500817,-1.3333334020867376 -3.20000016500817,-3.20000016500817 s1.3333334020867376,-3.20000016500817 3.20000016500817,-3.20000016500817 c1.8666667629214333,0 3.20000016500817,1.3333334020867376 3.20000016500817,3.20000016500817 S47.60476338316942,97.63333807930712 45.73809662024799,97.63333807930712 zM55.87143047610719,97.63333807930712 c-1.8666667629214333,0 -3.20000016500817,-1.3333334020867376 -3.20000016500817,-3.20000016500817 s1.3333334020867376,-3.20000016500817 3.20000016500817,-3.20000016500817 c1.8666667629214333,0 3.20000016500817,1.3333334020867376 3.20000016500817,3.20000016500817 S57.471430558611274,97.63333807930712 55.87143047610719,97.63333807930712 zM65.73809765154905,97.63333807930712 c-1.8666667629214333,0 -3.20000016500817,-1.3333334020867376 -3.20000016500817,-3.20000016500817 s1.3333334020867376,-3.20000016500817 3.20000016500817,-3.20000016500817 c1.8666667629214333,0 3.20000016500817,1.3333334020867376 3.20000016500817,3.20000016500817 S67.60476441447047,97.63333807930712 65.73809765154905,97.63333807930712 zM75.87143150740826,97.63333807930712 c-1.8666667629214333,0 -3.20000016500817,-1.3333334020867376 -3.20000016500817,-3.20000016500817 s1.3333334020867376,-3.20000016500817 3.20000016500817,-3.20000016500817 c1.8666667629214333,0 3.20000016500817,1.3333334020867376 3.20000016500817,3.20000016500817 S77.47143158991233,97.63333807930712 75.87143150740826,97.63333807930712 zM85.7380986828501,97.63333807930712 c-1.8666667629214333,0 -3.20000016500817,-1.3333334020867376 -3.20000016500817,-3.20000016500817 s1.3333334020867376,-3.20000016500817 3.20000016500817,-3.20000016500817 c1.8666667629214333,0 3.20000016500817,1.3333334020867376 3.20000016500817,3.20000016500817 S87.60476544577153,97.63333807930712 85.7380986828501,97.63333807930712 zM95.8714325387093,97.63333807930712 c-1.8666667629214333,0 -3.20000016500817,-1.3333334020867376 -3.20000016500817,-3.20000016500817 s1.3333334020867376,-3.20000016500817 3.20000016500817,-3.20000016500817 c1.8666667629214333,0 3.20000016500817,1.3333334020867376 3.20000016500817,3.20000016500817 S97.47143262121338,97.63333807930712 95.8714325387093,97.63333807930712 zM105.73809971415115,97.63333807930712 c-1.8666667629214333,0 -3.20000016500817,-1.3333334020867376 -3.20000016500817,-3.20000016500817 s1.3333334020867376,-3.20000016500817 3.20000016500817,-3.20000016500817 c1.8666667629214333,0 3.20000016500817,1.3333334020867376 3.20000016500817,3.20000016500817 S107.60476647707259,97.63333807930712 105.73809971415115,97.63333807930712 z" id="svg_3" fill="#ffffff" fill-opacity="1"/><path d="M55.87143047610719,64.30000302713871 c-1.600000082504084,-2.133333443338779 -2.4000001237561266,-4.533333567094906 -2.4000001237561266,-7.466667051685726 c0,-6.6666670104336845 10.933333897111241,-9.333333814607158 12.266667299197978,-24.533334598395957 c0,0 12.266667299197978,17.866667587962276 12.266667299197978,24.533334598395957 c0,2.6666668041734742 -0.8000000412520428,5.3333336083469485 -2.4000001237561266,7.20000037126838 c6.133333649598989,-3.4666668454255163 10.1333338558592,-10.1333338558592 10.1333338558592,-17.600000907544928 c0,-11.200000577528588 -20.2666677117184,-40.5333354234368 -20.2666677117184,-40.5333354234368 c-2.4000001237561266,25.333334639648 -20.2666677117184,29.33333484590821 -20.2666677117184,40.5333354234368 C45.47142993983064,54.43333585169686 49.738096826508205,61.100002862130545 55.87143047610719,64.30000302713871 z" id="svg_4" fill="#ffffff" fill-opacity="1"/></g></g></svg>